<svg height="480pt" viewBox="0 -20 480 480" width="480pt" xmlns="http://www.w3.org/2000/svg"><g fill="#9bc9ff"><path d="m472 80.09375h-432v125.863281l88-93.863281h312v288h32zm0 0"/><path d="m160 352.09375h160v32h-160zm0 0"/><path d="m136 352.09375h208v-48h-208zm0 0"/><path d="m306.335938 115.421875c11.496093-22.992187 10.269531-50.292969-3.246094-72.160156-13.515625-21.863281-37.386719-35.171875-63.089844-35.167969-25.703125 0-49.570312 13.308594-63.085938 35.171875-13.511718 21.867187-14.738281 49.167969-3.242187 72.15625l42.328125 84.671875h48zm0 0"/><path d="m128 112.09375-120 128h120zm0 0"/></g><path d="m472 72.09375h-150.542969c-5.039062-41.160156-39.992187-72.09375-81.457031-72.09375s-76.417969 30.933594-81.457031 72.09375h-118.542969c-4.417969 0-8 3.582031-8 8v122.703125l-29.832031 31.824219c-1.390625 1.480468-2.167969 3.4375-2.167969 5.472656v192c0 4.417969 3.582031 8 8 8h432c4.417969 0 8-3.582031 8-8v-24h24c4.417969 0 8-3.582031 8-8v-320c0-4.417969-3.582031-8-8-8zm-288.289062-24.617188c18.515624-30.304687 57.648437-40.589843 88.667968-23.300781 31.019532 17.289063 42.859375 55.984375 26.820313 87.667969l-40.144531 80.25h-38.109376l-40.144531-80.25c-10.335937-20.492188-9.234375-44.890625 2.910157-64.367188zm-15.710938 312.617188h144v16h-144zm-16-16h-8v-32h192v32zm12.886719-48 8.617187-5.167969c29.316406-17.710937 48.105469-48.652343 50.304688-82.832031h32.382812c2.199219 34.179688 20.988282 65.121094 50.304688 82.832031l8.617187 5.167969zm-116.886719-208h110.015625c.4375 5.417969 1.410156 10.777344 2.914063 16h-32.929688c-2.210938 0-4.320312.914062-5.832031 2.527344l-74.167969 79.113281zm72 44.230469v99.769531h-93.535156zm312 291.769531h-416v-176h112c4.417969 0 8-3.582031 8-8v-120h31.054688l40.945312 81.863281c-.152344 30.8125-16.335938 59.320313-42.710938 75.246094l-31.503906 18.890625s-3.199218 2.277344-3.585937 2.671875c-1.402344 1.417969-2.191407 3.332031-2.199219 5.328125v48c0 4.417969 3.582031 8 8 8h16v32h176v-32h16c4.417969 0 8-3.582031 8-8v-48c-.023438-2.085938-.886719-4.070312-2.398438-5.503906-.242187-.234375-3.449218-2.511719-3.449218-2.511719l-31.457032-18.875c-26.371093-15.929687-42.546874-44.4375-42.695312-75.246094l40.945312-81.863281h119.054688zm32-32h-16v-280c0-4.417969-3.582031-8-8-8h-120.929688c1.503907-5.222656 2.476563-10.582031 2.914063-16h142.015625zm0 0" fill="#1e81ce"/></svg>